<svg xmlns="http://www.w3.org/2000/svg" viewBox="0 0 1600 120" width="1600" height="120" role="img" aria-hidden="true">
<defs>
<pattern id="topo-scan" width="1" height="4" patternUnits="userSpaceOnUse">
  <path d="M 0 .5 H 1" stroke="#ffffff" stroke-opacity="0.012" stroke-width="1"/>
</pattern>
<linearGradient id="topo-fade" x1="0" x2="1" y1="0" y2="0">
  <stop offset="0%" stop-color="#ffffff" stop-opacity="0"/>
  <stop offset="14%" stop-color="#ffffff" stop-opacity="1"/>
  <stop offset="86%" stop-color="#ffffff" stop-opacity="1"/>
  <stop offset="100%" stop-color="#ffffff" stop-opacity="0"/>
</linearGradient>
<mask id="topo-mask">
  <rect width="1600" height="120" fill="url(#topo-fade)"/>
</mask>
</defs>
<rect width="1600" height="120" fill="#0a0b0e" fill-opacity="0"/>
<g mask="url(#topo-mask)">
  <path d="M -40 -28.44 L 8 -22.13 L 56 -16.63 L 104 -14.93 L 152 -16.82 L 200 -19.63 L 248 -21.34 L 296 -22.63 L 344 -25.63 L 392 -30.84 L 440 -35.8 L 488 -37.1 L 536 -33.74 L 584 -28.13 L 632 -23.75 L 680 -21.91 L 728 -21.08 L 776 -19.29 L 824 -16.92 L 872 -16.55 L 920 -20.05 L 968 -26.14 L 1016 -31.15 L 1064 -32.32 L 1112 -30.21 L 1160 -27.65 L 1208 -26.53 L 1256 -25.97 L 1304 -23.83 L 1352 -19.73 L 1400 -16.18 L 1448 -16.34 L 1496 -20.76 L 1544 -26.71 L 1592 -30.69 L 1640 -31.66" fill="none" stroke="#ffffff" stroke-opacity="0.043" stroke-width="1"/>
  <path d="M -40 0.07 L 8 7.61 L 56 10.83 L 104 8.3 L 152 2.81 L 200 -1.66 L 248 -3.87 L 296 -5.84 L 344 -9.71 L 392 -14.44 L 440 -16.34 L 488 -12.86 L 536 -5.59 L 584 0.88 L 632 3.19 L 680 1.99 L 728 0.48 L 776 0.46 L 824 0.35 L 872 -2.67 L 920 -8.82 L 968 -14.6 L 1016 -15.8 L 1064 -11.56 L 1112 -5.14 L 1160 -0.55 L 1208 1.18 L 1256 2.3 L 1304 4.87 L 1352 7.77 L 1400 7.48 L 1448 1.95 L 1496 -6.69 L 1544 -13.67 L 1592 -15.84 L 1640 -14.21" fill="none" stroke="#ffffff" stroke-opacity="0.032" stroke-width="1"/>
  <path d="M -40 28.41 L 8 32.54 L 56 29.89 L 104 22.25 L 152 14.92 L 200 11.69 L 248 11.72 L 296 11.51 L 344 9.58 L 392 8.47 L 440 11.84 L 488 19.81 L 536 27.9 L 584 30.88 L 632 27.58 L 680 21.59 L 728 17.25 L 776 15.24 L 824 12.76 L 872 7.69 L 920 2 L 968 0.46 L 1016 5.79 L 1064 15.49 L 1112 23.98 L 1160 27.65 L 1208 27.68 L 1256 27.65 L 1304 28.86 L 1352 28.67 L 1400 23.75 L 1448 14.5 L 1496 5.74 L 1544 2.53 L 1592 5.57 L 1640 10.95" fill="none" stroke="#ffffff" stroke-opacity="0.043" stroke-width="1"/>
  <path d="M -40 45.31 L 8 43.63 L 56 38.38 L 104 32.62 L 152 29.85 L 200 30.89 L 248 33.53 L 296 35.28 L 344 36.1 L 392 38.05 L 440 42.4 L 488 47.49 L 536 49.83 L 584 47.45 L 632 41.89 L 680 36.67 L 728 33.98 L 776 32.95 L 824 31.43 L 872 29.04 L 920 27.96 L 968 30.64 L 1016 36.77 L 1064 43.06 L 1112 46.07 L 1160 45.28 L 1208 43.08 L 1256 41.86 L 1304 41.47 L 1352 39.79 L 1400 35.71 L 1448 31.06 L 1496 29.23 L 1544 31.87 L 1592 37.12 L 1640 41.41" fill="none" stroke="#ffffff" stroke-opacity="0.032" stroke-width="1"/>
  <path d="M -40 62.68 L 8 56.61 L 56 49.04 L 104 44.62 L 152 45.96 L 200 51.34 L 248 56.69 L 296 59.72 L 344 61.74 L 392 65.21 L 440 70.13 L 488 73.21 L 536 71.09 L 584 64.08 L 632 56.29 L 680 51.91 L 728 51.56 L 776 52.51 L 824 52.3 L 872 51.69 L 920 53.59 L 968 59.3 L 1016 66.2 L 1064 69.76 L 1112 67.78 L 1160 62.41 L 1208 57.81 L 1256 55.98 L 1304 55.34 L 1352 53.33 L 1400 50.07 L 1448 48.78 L 1496 52.42 L 1544 60.16 L 1592 67.63 L 1640 70.85" fill="none" stroke="#ffffff" stroke-opacity="0.043" stroke-width="1"/>
  <path d="M -40 76.25 L 8 68.38 L 56 62.61 L 104 63.31 L 152 70.29 L 200 78.81 L 248 84.12 L 296 85.64 L 344 86.48 L 392 88.95 L 440 91.45 L 488 90.02 L 536 83.13 L 584 74.12 L 632 68.64 L 680 69.42 L 728 74.08 L 776 78.12 L 824 79.71 L 872 81.04 L 920 85 L 968 90.89 L 1016 94.25 L 1064 91.24 L 1112 82.75 L 1160 73.89 L 1208 69.25 L 1256 68.99 L 1304 69.72 L 1352 69.13 L 1400 68.88 L 1448 72.64 L 1496 81.37 L 1544 91.22 L 1592 96.58 L 1640 95.17" fill="none" stroke="#ffffff" stroke-opacity="0.032" stroke-width="1"/>
  <path d="M -40 95.39 L 8 92.41 L 56 92.46 L 104 96.64 L 152 102.67 L 200 106.8 L 248 107.2 L 296 105.35 L 344 103.91 L 392 103.67 L 440 102.84 L 488 99.56 L 536 94.56 L 584 91.14 L 632 92.04 L 680 96.78 L 728 102.12 L 776 105.25 L 824 106.23 L 872 107.15 L 920 109.16 L 968 110.66 L 1016 108.92 L 1064 103.26 L 1112 96.34 L 1160 91.94 L 1208 91.62 L 1256 93.67 L 1304 95.38 L 1352 96.1 L 1400 97.64 L 1448 101.67 L 1496 107.18 L 1544 110.79 L 1592 109.97 L 1640 105.52" fill="none" stroke="#ffffff" stroke-opacity="0.043" stroke-width="1"/>
  <path d="M -40 116.14 L 8 116.57 L 56 120.92 L 104 128.04 L 152 133.56 L 200 133.87 L 248 129.42 L 296 123.98 L 344 120.63 L 392 118.98 L 440 116.44 L 488 112.05 L 536 108.35 L 584 109.15 L 632 115.41 L 680 123.85 L 728 129.83 L 776 131.47 L 824 130.76 L 872 130.62 L 920 131.24 L 968 129.95 L 1016 124.64 L 1064 116.85 L 1112 111.08 L 1160 110.67 L 1208 114.77 L 1256 119.48 L 1304 121.89 L 1352 122.72 L 1400 124.64 L 1448 128.46 L 1496 131.55 L 1544 130.3 L 1592 124.18 L 1640 116.75" fill="none" stroke="#ffffff" stroke-opacity="0.032" stroke-width="1"/>
  <path d="M -40 141.88 L 8 145.93 L 56 153.04 L 104 159.57 L 152 160.56 L 200 154.61 L 248 145.5 L 296 138.52 L 344 135.67 L 392 134.6 L 440 132.35 L 488 129.42 L 536 129.59 L 584 135.56 L 632 145.3 L 680 153.24 L 728 155.28 L 776 152.27 L 824 148.5 L 872 146.83 L 920 145.94 L 968 142.64 L 1016 136.37 L 1064 130.91 L 1112 130.93 L 1160 137.25 L 1208 145.69 L 1256 151.07 L 1304 151.88 L 1352 150.89 L 1400 151.16 L 1448 152.12 L 1496 150.17 L 1544 143.08 L 1592 133.38 L 1640 126.67" fill="none" stroke="#ffffff" stroke-opacity="0.043" stroke-width="1"/>
  <path d="M 448.09 54 L 449.56 59.24 L 445 64.34 L 435.47 68.87 L 422.95 72.69 L 409.12 75.9 L 394.68 78.64 L 379.53 80.9 L 363.47 82.51 L 346.77 83.31 L 330 83.36 L 313.46 82.9 L 296.88 82.22 L 279.68 81.33 L 261.9 79.94 L 244.79 77.58 L 230.62 73.99 L 221.56 69.29 L 218.41 64.04 L 220.05 58.82 L 224.09 54 L 228.32 49.54 L 231.96 45.18 L 235.88 40.73 L 241.73 36.25 L 250.73 32.06 L 263.02 28.48 L 277.83 25.66 L 294.25 23.55 L 311.73 22.08 L 330 21.36 L 348.5 21.66 L 366.1 23.25 L 381.38 26.09 L 393.57 29.78 L 403.18 33.74 L 411.84 37.54 L 421.14 41.15 L 431.45 44.88 L 441.29 49.12 L 448.09 54 Z" fill="none" stroke="#ffffff" stroke-opacity="0.046" stroke-width="1"/>
  <path d="M 431.06 54 L 431.51 57.73 L 427.81 61.31 L 420.49 64.42 L 410.97 66.9 L 400.81 68.89 L 390.87 70.64 L 381.11 72.33 L 370.95 73.92 L 359.9 75.2 L 348 75.9 L 335.7 75.9 L 323.52 75.25 L 311.72 74.08 L 300.47 72.45 L 290.13 70.32 L 281.5 67.63 L 275.55 64.41 L 272.85 60.89 L 273.08 57.35 L 275.06 54 L 277.43 50.85 L 279.45 47.72 L 281.49 44.44 L 284.77 41.04 L 290.5 37.78 L 299.18 35.05 L 310.29 33.13 L 322.74 32.08 L 335.5 31.74 L 348 31.9 L 360.11 32.44 L 371.72 33.41 L 382.54 34.88 L 392.16 36.86 L 400.44 39.21 L 407.71 41.76 L 414.55 44.44 L 421.21 47.29 L 427.16 50.46 L 431.06 54 Z" fill="none" stroke="#ffffff" stroke-opacity="0.035" stroke-width="1"/>
  <path d="M 1268.75 67 L 1266.44 73.76 L 1259.19 80.22 L 1246.91 86.03 L 1230.74 90.92 L 1212.59 94.98 L 1194.09 98.57 L 1175.6 102.11 L 1156.14 105.72 L 1134.39 108.99 L 1110 111.14 L 1084.18 111.46 L 1059.15 109.68 L 1036.91 106.12 L 1018.25 101.44 L 1002.66 96.27 L 989.23 90.93 L 977.63 85.39 L 968.47 79.54 L 962.69 73.36 L 960.75 67 L 962.23 60.62 L 966.27 54.26 L 972.48 47.89 L 981.56 41.55 L 994.8 35.58 L 1013.06 30.61 L 1035.77 27.27 L 1060.96 25.84 L 1086.2 26.03 L 1110 27.14 L 1132.36 28.5 L 1154.32 29.8 L 1176.74 31.28 L 1199.29 33.48 L 1220.45 36.88 L 1238.41 41.56 L 1252.06 47.26 L 1261.39 53.58 L 1266.89 60.22 L 1268.75 67 Z" fill="none" stroke="#ffffff" stroke-opacity="0.046" stroke-width="1"/>
  <path d="M 1222 67 L 1219.06 71.58 L 1214.64 75.99 L 1208.25 80.2 L 1199.54 84.06 L 1188.69 87.47 L 1176.29 90.43 L 1162.83 93.08 L 1148.32 95.48 L 1132.4 97.51 L 1115 98.77 L 1096.87 98.8 L 1079.47 97.37 L 1064.34 94.62 L 1052.12 91.04 L 1042.32 87.19 L 1033.67 83.41 L 1025.2 79.71 L 1016.95 75.85 L 1010.06 71.62 L 1006 67 L 1005.72 62.19 L 1009.21 57.45 L 1015.8 52.96 L 1024.79 48.79 L 1035.95 45.04 L 1049.33 41.89 L 1064.77 39.62 L 1081.57 38.42 L 1098.61 38.25 L 1115 38.77 L 1130.66 39.54 L 1146.22 40.31 L 1162.4 41.16 L 1179.08 42.5 L 1195.05 44.76 L 1208.42 48.15 L 1217.65 52.47 L 1222.38 57.31 L 1223.4 62.23 L 1222 67 Z" fill="none" stroke="#ffffff" stroke-opacity="0.035" stroke-width="1"/>
  <path d="M 1377.81 31 L 1378.63 34.43 L 1375.5 37.74 L 1369.01 40.59 L 1360.58 42.88 L 1351.62 44.71 L 1342.82 46.31 L 1334.09 47.79 L 1324.99 49.09 L 1315.25 50.03 L 1305 50.45 L 1294.58 50.35 L 1284.17 49.86 L 1273.74 49.04 L 1263.36 47.86 L 1253.57 46.13 L 1245.45 43.72 L 1240.19 40.71 L 1238.32 37.37 L 1239.33 34.06 L 1241.81 31 L 1244.3 28.17 L 1246.15 25.38 L 1247.83 22.43 L 1250.56 19.37 L 1255.45 16.43 L 1262.88 13.95 L 1272.35 12.15 L 1282.96 11.05 L 1293.97 10.52 L 1305 10.45 L 1315.85 10.85 L 1326.19 11.82 L 1335.48 13.4 L 1343.3 15.49 L 1349.74 17.84 L 1355.48 20.21 L 1361.36 22.55 L 1367.67 25.01 L 1373.65 27.8 L 1377.81 31 Z" fill="none" stroke="#ffffff" stroke-opacity="0.046" stroke-width="1"/>
  <path d="M 0 60 H 1600" stroke="#ffb000" stroke-opacity="0.04" stroke-width="1"/>
  <rect width="1600" height="120" fill="url(#topo-scan)"/>
</g>
</svg>
